<svg width="0" height="0"><symbol xmlns="http://www.w3.org/2000/svg" id="arrow-back" fill="none" viewBox="0 0 14 14"><path stroke="currentColor" d="m5.5 4-4 4m0 0 4 4m-4-4H10a2.5 2.5 0 0 0 0-5H8.5"/></symbol><symbol xmlns="http://www.w3.org/2000/svg" id="arrow" fill="none" viewBox="0 0 15 15"><path fill="currentColor" d="M3.646 11.354a.5.5 0 0 1 0-.707L10.293 4H6a.5.5 0 0 1 0-1h5.5a.5.5 0 0 1 .5.5V9a.5.5 0 0 1-1 0V4.707l-6.646 6.647a.5.5 0 0 1-.708 0"/></symbol><symbol xmlns="http://www.w3.org/2000/svg" id="chevron-up" fill="none" stroke="currentColor" stroke-linecap="round" stroke-linejoin="round" stroke-width="2" viewBox="0 0 24 24"><path d="m18 15-6-6-6 6"/></symbol><symbol xmlns="http://www.w3.org/2000/svg" id="error" fill="none" stroke="currentColor" stroke-linecap="round" stroke-linejoin="round" stroke-width="2" viewBox="0 0 24 24"><circle cx="12" cy="12" r="10"/><path d="m4.9 4.9 14.2 14.2"/></symbol><symbol xmlns="http://www.w3.org/2000/svg" id="ethereum" fill="currentColor" viewBox="0 0 15 24"><path d="m7.5 17.972 7.503-4.353L7.5 24 0 13.62zM7.5 0l7.499 12.223-7.5 4.354L0 12.223z"/><path d="m7.5 17.972 7.503-4.353L7.5 24 0 13.62zM7.5 0l7.499 12.223-7.5 4.354L0 12.223z"/></symbol><symbol xmlns="http://www.w3.org/2000/svg" id="external-link" fill="none" viewBox="0 0 15 15"><path stroke="inherit" d="M8 5H5a2 2 0 0 0-2 2v5a2 2 0 0 0 2 2h5a2 2 0 0 0 2-2V8.5m-4.5 1L14 3m0 0v4m0-4h-4"/></symbol><symbol xmlns="http://www.w3.org/2000/svg" id="fast-forward" fill="currentColor" stroke="currentColor" stroke-linecap="round" stroke-linejoin="round" stroke-width="2" viewBox="0 0 24 24"><path d="m13 19 9-7-9-7zM2 19l9-7-9-7z"/></symbol><symbol xmlns="http://www.w3.org/2000/svg" id="info" fill="none" stroke="currentColor" stroke-linecap="round" stroke-linejoin="round" stroke-width="2" viewBox="0 0 24 24"><circle cx="12" cy="12" r="10"/><path d="M12 16v-4m0-4h.01"/></symbol><symbol xmlns="http://www.w3.org/2000/svg" id="moon" fill="none" viewBox="0 0 14 14"><path fill="currentColor" d="M7 1.167a5.833 5.833 0 1 0 5.832 5.714.438.438 0 0 0-.69-.348 3.354 3.354 0 0 1-4.675-4.675.437.437 0 0 0-.348-.69z"/></symbol><symbol xmlns="http://www.w3.org/2000/svg" id="pause" fill="currentColor" stroke="currentColor" stroke-linecap="round" stroke-linejoin="round" stroke-width="2" viewBox="0 0 24 24"><rect width="4" height="16" x="14" y="4" rx="1"/><rect width="4" height="16" x="6" y="4" rx="1"/></symbol><symbol xmlns="http://www.w3.org/2000/svg" id="phone" fill="currentColor" viewBox="0 0 24 24"><path d="M6.62 10.79c1.44 2.83 3.76 5.14 6.59 6.59l2.2-2.2c.27-.27.67-.36 1.02-.24 1.12.37 2.33.57 3.57.57.55 0 1 .45 1 1V20c0 .55-.45 1-1 1-9.39 0-17-7.61-17-17 0-.55.45-1 1-1h3.5c.55 0 1 .45 1 1 0 1.25.2 2.45.57 3.57.11.35.03.74-.25 1.02z"/></symbol><symbol xmlns="http://www.w3.org/2000/svg" id="play" fill="currentColor" stroke="currentColor" stroke-linecap="round" stroke-linejoin="round" stroke-width="2" viewBox="0 0 24 24"><path d="m6 3 14 9-14 9z"/></symbol><symbol xmlns="http://www.w3.org/2000/svg" id="podcast" fill="none" stroke="currentColor" stroke-linecap="round" stroke-linejoin="round" stroke-width="2" viewBox="0 0 24 24"><path d="M16.85 18.58a9 9 0 1 0-9.7 0"/><path d="M8 14a5 5 0 1 1 8 0m-3 3a1 1 0 1 0-2 0l.5 4.5a.5.5 0 1 0 1 0Z"/><circle cx="12" cy="11" r="1"/></symbol><symbol xmlns="http://www.w3.org/2000/svg" id="ring" fill="none" viewBox="0 0 15 17"><path fill="currentColor" d="M1.18 13.313h12.382c.735 0 1.18-.376 1.18-.946 0-.781-.797-1.484-1.469-2.18-.515-.539-.656-1.648-.718-2.546-.055-3-.852-5.063-2.93-5.813C9.328.805 8.523 0 7.367 0c-1.148 0-1.96.805-2.25 1.828-2.078.75-2.875 2.813-2.93 5.813-.062.898-.203 2.007-.718 2.547C.789 10.883 0 11.586 0 12.368c0 .57.438.944 1.18.944m6.187 3.132c1.328 0 2.297-.968 2.399-2.062h-4.79c.102 1.094 1.07 2.062 2.391 2.062"/></symbol><symbol xmlns="http://www.w3.org/2000/svg" id="spinner" fill="currentColor" viewBox="0 0 24 24"><path d="M12 1a11 11 0 1 0 11 11A11 11 0 0 0 12 1m0 19a8 8 0 1 1 8-8 8 8 0 0 1-8 8" opacity=".25"/><path d="M10.14 1.16a11 11 0 0 0-9 8.92A1.59 1.59 0 0 0 2.46 12a1.52 1.52 0 0 0 1.65-1.3 8 8 0 0 1 6.66-6.61A1.42 1.42 0 0 0 12 2.69a1.57 1.57 0 0 0-1.86-1.53"/></symbol><symbol xmlns="http://www.w3.org/2000/svg" id="success" fill="none" stroke="currentColor" stroke-linecap="round" stroke-linejoin="round" stroke-width="2" viewBox="0 0 24 24"><circle cx="12" cy="12" r="10"/><path d="m9 12 2 2 4-4"/></symbol><symbol xmlns="http://www.w3.org/2000/svg" id="sun" fill="none" viewBox="0 0 14 14"><path fill="currentColor" d="M7.437 1.031a.438.438 0 1 0-.875 0v.889a.438.438 0 0 0 .875 0zm-4.968 9.881a.437.437 0 1 0 .619.618l.628-.628a.437.437 0 1 0-.619-.619zm4.53.731c.242 0 .438.196.438.438v.888a.438.438 0 0 1-.875 0v-.888c0-.242.195-.438.437-.438m3.283-8.545a.437.437 0 1 0 .619.62l.628-.63a.437.437 0 1 0-.619-.618zM11.642 7c0-.242.196-.437.437-.437h.889a.438.438 0 0 1 0 .875h-.889A.437.437 0 0 1 11.642 7m-.742 3.283a.437.437 0 1 0-.618.619l.628.628a.437.437 0 1 0 .619-.618zM.592 7c0-.242.196-.437.438-.437h.888a.437.437 0 1 1 0 .875H1.03A.44.44 0 0 1 .592 7m2.496-4.53a.438.438 0 0 0-.619.619l.628.628a.437.437 0 1 0 .619-.619zm1.436 2.055a3.5 3.5 0 1 1 4.95 4.95 3.5 3.5 0 0 1-4.95-4.95"/></symbol><symbol xmlns="http://www.w3.org/2000/svg" id="system" fill="none" viewBox="0 0 14 14"><path fill="currentColor" fill-rule="evenodd" d="M1.75 3.354c0-.886.718-1.604 1.604-1.604h7.292c.886 0 1.604.718 1.604 1.604v5.98h.73c.24 0 .437.195.437.437v.875c0 .886-.718 1.604-1.604 1.604H2.188a1.604 1.604 0 0 1-1.605-1.604V9.77c0-.242.196-.438.438-.438h.73zm-.292 6.854v.438a.73.73 0 0 0 .73.729h9.625a.73.73 0 0 0 .729-.73v-.437z" clip-rule="evenodd"/></symbol><symbol xmlns="http://www.w3.org/2000/svg" id="v0" fill="none" viewBox="0 0 40 20"><path fill="currentColor" d="M23.392 0h9.527a6.995 6.995 0 0 1 6.995 6.995v9.086H36V6.995q0-.14-.011-.277l-9.527 9.361.096.002H36v3.695h-9.44c-3.864 0-7.081-3.162-7.081-7.025V3.689h3.913v9.062q0 .262.04.516L33.168 3.7a3 3 0 0 0-.25-.01h-9.526zm-9.623 19.096L0 3.688h5.54l8.083 9.046V3.688h4.13v13.887c0 2.096-2.588 3.083-3.984 1.52"/></symbol><symbol xmlns="http://www.w3.org/2000/svg" id="warning" fill="none" stroke="currentColor" stroke-linecap="round" stroke-linejoin="round" stroke-width="2" viewBox="0 0 24 24"><circle cx="12" cy="12" r="10"/><path d="M12 8v4m0 4h.01"/></symbol><symbol xmlns="http://www.w3.org/2000/svg" id="x" fill="none" stroke="currentColor" stroke-linecap="round" stroke-linejoin="round" stroke-width="2" viewBox="0 0 24 24"><path d="M18 6 6 18M6 6l12 12"/></symbol></svg>