<svg width="14" height="14" viewBox="0 0 14 14" fill="none" xmlns="http://www.w3.org/2000/svg"><path d="M6.99984 1.16675C3.77817 1.16675 1.1665 3.77842 1.1665 7.00008C1.1665 10.2217 3.77817 12.8334 6.99984 12.8334C10.2215 12.8334 12.8332 10.2217 12.8332 7.00008C12.8332 6.96036 12.8328 6.92069 12.832 6.8812C12.8287 6.71926 12.7363 6.57244 12.5918 6.49941C12.4472 6.42643 12.2742 6.43921 12.142 6.53272C11.5956 6.919 10.9291 7.14592 10.2082 7.14592C8.35574 7.14592 6.854 5.64421 6.854 3.79175C6.854 3.07089 7.08092 2.40433 7.4672 1.85791C7.56071 1.72569 7.57349 1.55265 7.50051 1.40811C7.42748 1.26358 7.28065 1.17118 7.11872 1.16794C7.07917 1.16714 7.03956 1.16675 6.99984 1.16675Z" fill="currentColor"></path></svg>