<svg width="14" height="14" viewBox="0 0 14 14" fill="none" xmlns="http://www.w3.org/2000/svg"><path d="M7.43652 1.03101C7.43652 0.789378 7.24064 0.593506 6.99902 0.593506C6.75741 0.593506 6.56152 0.789378 6.56152 1.03101V1.91957C6.56152 2.1612 6.75741 2.35707 6.99902 2.35707C7.24064 2.35707 7.43652 2.1612 7.43652 1.91957V1.03101Z" fill="currentColor"></path><path d="M2.46896 10.9115C2.29811 11.0823 2.29811 11.3594 2.46896 11.5302C2.63982 11.7011 2.91682 11.7011 3.08768 11.5302L3.71599 10.9019C3.88684 10.7311 3.88684 10.454 3.71599 10.2832C3.54514 10.1123 3.26812 10.1123 3.09727 10.2832L2.46896 10.9115Z" fill="currentColor"></path><path d="M6.99902 11.6431C7.24064 11.6431 7.43652 11.8389 7.43652 12.0806V12.9692C7.43652 13.2108 7.24064 13.4067 6.99902 13.4067C6.75741 13.4067 6.56152 13.2108 6.56152 12.9692V12.0806C6.56152 11.8389 6.75741 11.6431 6.99902 11.6431Z" fill="currentColor"></path><path d="M10.282 3.09849C10.1111 3.26935 10.1111 3.54635 10.282 3.71721C10.4528 3.88807 10.7298 3.88807 10.9007 3.71721L11.529 3.0889C11.6999 2.91805 11.6999 2.64103 11.529 2.47018C11.3581 2.29933 11.0811 2.29933 10.9103 2.47018L10.282 3.09849Z" fill="currentColor"></path><path d="M11.6416 7C11.6416 6.75838 11.8375 6.5625 12.0791 6.5625H12.9677C13.2093 6.5625 13.4052 6.75838 13.4052 7C13.4052 7.24167 13.2093 7.4375 12.9677 7.4375H12.0791C11.8375 7.4375 11.6416 7.24167 11.6416 7Z" fill="currentColor"></path><path d="M10.9007 10.2832C10.7298 10.1123 10.4528 10.1123 10.282 10.2832C10.1111 10.454 10.1111 10.7311 10.282 10.9019L10.9103 11.5302C11.0811 11.7011 11.3581 11.7011 11.529 11.5302C11.6999 11.3594 11.6999 11.0823 11.529 10.9115L10.9007 10.2832Z" fill="currentColor"></path><path d="M0.592285 7C0.592285 6.75838 0.788163 6.5625 1.02979 6.5625H1.91835C2.15998 6.5625 2.35585 6.75838 2.35585 7C2.35585 7.24162 2.15998 7.4375 1.91835 7.4375H1.02979C0.788163 7.4375 0.592285 7.24162 0.592285 7Z" fill="currentColor"></path><path d="M3.08768 2.47018C2.91682 2.29933 2.63982 2.29933 2.46896 2.47018C2.29811 2.64103 2.29811 2.91805 2.46896 3.0889L3.09727 3.71721C3.26813 3.88807 3.54514 3.88807 3.71599 3.71721C3.88685 3.54635 3.88685 3.26935 3.71599 3.09849L3.08768 2.47018Z" fill="currentColor"></path><path d="M4.52415 4.52513C5.89096 3.15829 8.10704 3.15829 9.47391 4.52513C10.8407 5.89196 10.8407 8.10804 9.47391 9.47485C8.10704 10.8417 5.89096 10.8417 4.52415 9.47485C3.15732 8.10804 3.15732 5.89196 4.52415 4.52513Z" fill="currentColor"></path></svg>