<svg width="14" height="14" viewBox="0 0 14 14" fill="none" xmlns="http://www.w3.org/2000/svg"><path fill-rule="evenodd" clip-rule="evenodd" d="M1.75016 3.35417C1.75016 2.46821 2.46837 1.75 3.35433 1.75H10.646C11.532 1.75 12.2502 2.46821 12.2502 3.35417V9.33333H12.9793C13.2209 9.33333 13.4168 9.52922 13.4168 9.77083V10.6458C13.4168 11.5318 12.6986 12.25 11.8127 12.25H2.18766C1.30171 12.25 0.583496 11.5318 0.583496 10.6458V9.77083C0.583496 9.52922 0.779374 9.33333 1.021 9.33333H1.75016V3.35417ZM1.4585 10.2083V10.6458C1.4585 11.0486 1.78495 11.375 2.18766 11.375H11.8127C12.2154 11.375 12.5418 11.0486 12.5418 10.6458V10.2083H1.4585Z" fill="currentColor"></path></svg>